<?xml version="1.0" standalone="no"?>
<!DOCTYPE svg PUBLIC "-//W3C//DTD SVG 20010904//EN"
 "http://www.w3.org/TR/2001/REC-SVG-20010904/DTD/svg10.dtd">
<svg version="1.0" xmlns="http://www.w3.org/2000/svg"
     width="32.000000pt" height="32.000000pt" viewBox="0 0 32.000000 32.000000"
     preserveAspectRatio="xMidYMid meet">

<g transform="translate(0.000000,32.000000) scale(0.001000,-0.001000)" fill="#ffffff" stroke="none">
<path d="M16185 27134 c-5 -2 -59 -11 -120 -19 -60 -9 -132 -20 -160 -25 -27
-5 -90 -16 -140 -24 -49 -9 -112 -20 -140 -25 -49 -9 -191 -34 -290 -52 -27
-4 -72 -13 -100 -18 -27 -5 -93 -17 -145 -26 -52 -9 -115 -20 -140 -25 -25 -4
-90 -16 -145 -25 -55 -9 -120 -20 -145 -25 -60 -12 -137 -26 -245 -45 -49 -9
-112 -20 -140 -25 -27 -5 -93 -16 -145 -25 -52 -9 -117 -21 -145 -26 -59 -11
-115 -21 -245 -44 -52 -9 -115 -20 -140 -25 -25 -5 -88 -16 -140 -25 -136 -23
-191 -33 -225 -40 -16 -3 -68 -12 -115 -20 -47 -8 -98 -17 -115 -20 -71 -15
-126 -25 -220 -40 -55 -9 -120 -21 -145 -25 -25 -5 -88 -16 -140 -25 -52 -9
-115 -20 -140 -25 -60 -11 -147 -27 -250 -46 -47 -8 -105 -19 -130 -24 -45 -8
-190 -34 -285 -50 -27 -5 -75 -14 -105 -19 -30 -6 -95 -18 -145 -26 -49 -9
-110 -20 -135 -25 -25 -4 -90 -16 -145 -25 -55 -9 -122 -21 -150 -26 -118 -23
-145 -28 -240 -44 -55 -9 -120 -21 -145 -25 -25 -5 -88 -16 -140 -25 -52 -9
-115 -20 -140 -25 -25 -5 -90 -16 -145 -25 -95 -16 -130 -22 -242 -44 -27 -5
-91 -17 -143 -26 -52 -9 -117 -20 -145 -25 -27 -5 -93 -16 -145 -25 -52 -9
-116 -21 -142 -26 -83 -16 -140 -26 -243 -44 -55 -9 -120 -21 -145 -25 -25 -5
-88 -16 -140 -25 -52 -9 -115 -20 -140 -25 -47 -9 -106 -19 -255 -45 -49 -9
-110 -20 -135 -25 -25 -5 -88 -16 -140 -25 -52 -9 -117 -20 -145 -25 -93 -17
-150 -27 -230 -40 -44 -7 -89 -16 -100 -20 -11 -5 -38 -11 -60 -14 -43 -6
-200 -32 -280 -47 -27 -5 -88 -16 -135 -24 -78 -13 -123 -21 -250 -45 -25 -5
-88 -16 -140 -25 -52 -9 -115 -20 -140 -25 -25 -5 -88 -16 -140 -25 -100 -17
-159 -27 -250 -44 -30 -6 -95 -18 -145 -26 -49 -9 -112 -20 -140 -25 -27 -5
-93 -16 -145 -25 -90 -15 -146 -26 -215 -40 -16 -3 -68 -12 -115 -20 -47 -8
-98 -17 -115 -20 -16 -4 -52 -10 -80 -15 -27 -5 -93 -16 -145 -25 -52 -9 -115
-20 -140 -25 -25 -5 -68 -13 -96 -19 -114 -21 -299 -91 -422 -157 -480 -262
-806 -736 -882 -1284 -13 -94 -8 -370 8 -460 6 -30 18 -98 27 -150 17 -101 28
-161 44 -250 6 -30 18 -95 26 -145 9 -49 20 -110 25 -135 4 -25 16 -90 25
-145 15 -94 25 -149 40 -220 5 -26 19 -107 40 -235 3 -19 10 -55 15 -80 5 -25
16 -88 25 -140 9 -52 20 -115 25 -140 5 -25 16 -90 25 -145 9 -55 21 -120 25
-145 13 -65 27 -142 45 -245 9 -49 20 -112 25 -140 5 -27 16 -90 24 -140 14
-82 24 -139 41 -220 3 -16 12 -68 20 -115 8 -47 17 -98 20 -115 4 -16 10 -52
15 -80 5 -27 16 -93 25 -145 9 -52 20 -117 26 -145 5 -27 16 -90 25 -140 15
-92 26 -151 43 -240 5 -27 17 -93 26 -145 9 -52 20 -115 25 -140 4 -25 16 -90
25 -145 9 -55 20 -120 25 -145 12 -60 26 -137 45 -245 9 -49 20 -112 25 -140
5 -27 16 -90 24 -140 9 -49 20 -112 25 -140 9 -49 34 -191 52 -290 4 -27 13
-72 18 -100 5 -27 17 -93 26 -145 9 -52 20 -115 25 -140 4 -25 16 -90 25 -145
9 -55 21 -122 26 -150 23 -118 28 -145 44 -240 9 -55 21 -120 25 -145 5 -25
16 -88 25 -140 9 -52 20 -115 25 -140 9 -47 19 -106 45 -255 9 -49 20 -110 25
-135 5 -25 16 -88 25 -140 9 -52 20 -117 25 -145 5 -27 16 -93 25 -145 9 -52
20 -115 25 -140 5 -25 13 -70 19 -100 5 -30 12 -66 15 -80 4 -14 11 -54 16
-90 5 -36 14 -87 19 -115 6 -27 17 -93 26 -145 9 -52 21 -117 26 -145 11 -59
21 -115 44 -245 9 -52 20 -115 25 -140 5 -25 16 -88 25 -140 9 -52 20 -117 25
-145 5 -27 16 -90 25 -140 16 -90 28 -161 44 -245 5 -25 16 -90 26 -145 9 -55
21 -122 26 -150 6 -27 16 -90 25 -140 14 -86 20 -121 43 -245 6 -30 18 -95 26
-145 9 -49 20 -110 25 -135 5 -25 16 -90 25 -145 16 -96 27 -156 40 -220 3
-16 12 -68 20 -115 8 -47 17 -98 20 -115 9 -42 22 -116 39 -220 9 -49 20 -112
25 -140 6 -27 17 -93 26 -145 23 -130 33 -186 44 -245 5 -27 17 -93 26 -145 9
-52 20 -115 25 -140 5 -25 16 -90 25 -145 9 -55 21 -120 25 -145 13 -65 27
-142 45 -245 9 -49 20 -112 25 -140 5 -27 16 -90 24 -140 9 -49 20 -112 25
-140 6 -27 17 -93 26 -145 16 -91 27 -152 45 -250 5 -25 16 -88 25 -140 9 -52
20 -115 25 -140 5 -25 16 -88 25 -140 17 -100 27 -159 44 -250 6 -30 18 -95
26 -145 9 -49 20 -110 25 -135 4 -25 16 -90 25 -145 9 -55 20 -120 25 -145 10
-49 35 -191 50 -280 5 -30 14 -77 19 -105 5 -27 17 -93 26 -145 9 -52 20 -115
25 -140 4 -25 16 -90 25 -145 9 -55 20 -120 25 -145 12 -60 26 -137 45 -245 9
-49 20 -112 25 -140 5 -27 16 -90 24 -140 14 -82 24 -139 41 -220 5 -26 19
-107 40 -235 3 -19 10 -55 15 -80 5 -25 16 -88 25 -140 9 -52 20 -115 24 -140
5 -25 16 -85 25 -135 31 -178 48 -246 86 -345 11 -30 24 -64 27 -75 22 -68
128 -248 218 -370 145 -196 392 -396 615 -497 47 -21 94 -43 105 -48 11 -6 67
-25 125 -44 204 -66 424 -90 637 -70 72 7 139 15 150 18 10 3 50 11 88 17 39
6 90 14 115 19 25 5 88 16 140 25 111 20 153 27 275 49 50 9 117 21 150 27 33
6 80 14 105 19 25 5 88 16 140 25 134 24 166 29 335 60 83 15 173 31 200 36
28 4 91 16 140 25 137 25 172 31 270 48 50 8 115 20 145 26 61 11 120 22 255
45 50 9 113 20 140 25 28 5 91 16 140 25 141 25 188 33 220 40 17 3 71 13 120
21 94 15 156 27 240 43 28 6 84 15 125 22 104 16 143 23 315 54 83 15 170 31
195 35 25 5 86 15 137 23 51 9 97 18 103 22 13 8 13 25 -1 25 -6 0 -49 23 -96
50 -47 28 -87 50 -89 50 -9 0 -123 78 -189 129 -169 132 -273 255 -330 390
l-32 76 -44 -1 c-24 -1 -108 -13 -187 -28 -78 -14 -206 -37 -285 -51 -78 -14
-164 -30 -192 -35 -27 -5 -114 -20 -193 -34 -157 -28 -400 -72 -477 -86 -27
-5 -114 -20 -193 -34 -150 -27 -393 -71 -477 -86 -190 -34 -236 -42 -280 -50
-60 -11 -318 -57 -395 -71 -30 -5 -91 -16 -135 -24 -44 -8 -105 -18 -135 -24
-30 -5 -118 -21 -195 -35 -77 -14 -194 -34 -260 -46 -166 -30 -353 -20 -460
24 -16 7 -46 19 -65 26 -65 25 -205 124 -274 195 -148 150 -206 285 -255 590
-6 33 -15 87 -21 120 -6 33 -17 96 -25 140 -8 44 -18 105 -24 135 -14 79 -56
315 -81 455 -12 66 -28 158 -36 205 -40 223 -66 370 -75 420 -6 30 -16 91 -24
135 -19 105 -30 170 -50 280 -9 50 -20 113 -25 140 -5 28 -20 113 -34 190 -14
77 -34 194 -46 260 -12 66 -28 158 -36 205 -40 223 -66 370 -75 420 -6 30 -16
91 -24 135 -8 44 -19 107 -25 140 -6 33 -17 96 -25 140 -8 44 -18 105 -24 135
-14 79 -56 315 -81 455 -12 66 -28 158 -36 205 -40 223 -66 370 -75 420 -6 30
-16 91 -24 135 -19 105 -30 170 -50 280 -9 50 -20 113 -25 140 -5 28 -20 113
-34 190 -14 77 -34 194 -46 260 -30 169 -50 281 -61 345 -6 30 -16 91 -24 135
-8 44 -19 107 -25 140 -6 33 -17 96 -25 140 -19 105 -30 170 -50 280 -9 50
-20 113 -25 140 -5 28 -20 113 -34 190 -14 77 -34 194 -46 260 -30 169 -50
281 -61 345 -6 30 -16 91 -24 135 -19 105 -30 170 -50 280 -9 50 -20 113 -25
140 -5 28 -16 91 -25 140 -9 50 -20 113 -25 140 -5 28 -21 115 -35 195 -14 80
-30 170 -35 200 -8 47 -40 227 -70 395 -17 95 -60 335 -85 472 -13 76 -31 179
-40 228 -9 50 -20 113 -25 140 -5 28 -20 113 -34 190 -14 77 -34 194 -46 260
-29 165 -49 281 -60 340 -5 28 -20 113 -34 190 -14 77 -32 181 -41 230 -9 50
-20 113 -25 140 -5 28 -16 91 -25 140 -9 50 -21 114 -26 143 -5 28 -14 78 -19
110 -6 31 -17 93 -25 137 -8 44 -18 105 -24 135 -5 30 -19 109 -31 175 -12 66
-28 158 -36 205 -9 47 -22 121 -29 165 -16 93 -28 155 -50 280 -9 50 -20 113
-25 140 -11 60 -57 318 -71 395 -5 30 -16 91 -24 135 -8 44 -18 105 -24 135
-5 30 -19 107 -30 170 -11 63 -27 156 -36 205 -9 50 -27 151 -40 225 -13 74
-31 176 -40 225 -9 50 -20 113 -25 140 -11 60 -57 318 -71 395 -5 30 -16 91
-24 135 -8 44 -18 105 -24 135 -5 30 -19 109 -31 175 -12 66 -28 158 -36 205
-8 47 -26 146 -39 220 -13 74 -31 176 -40 225 -9 50 -20 113 -25 140 -5 28
-19 104 -31 170 -29 151 -31 337 -5 440 10 39 40 116 67 171 120 247 340 415
604 464 73 13 211 38 283 51 28 5 78 14 110 19 31 6 93 17 137 25 44 8 105 18
135 24 30 5 119 21 198 35 157 28 400 72 477 86 74 13 313 56 450 80 66 12
158 28 205 36 214 38 370 66 420 75 30 6 93 16 140 24 92 15 122 20 335 60 77
14 203 37 280 51 77 13 165 29 195 35 30 5 91 16 135 24 44 8 105 18 135 24
79 14 315 56 455 81 66 12 158 28 205 36 47 9 148 27 225 40 77 14 163 29 190
34 28 5 113 20 190 34 77 14 181 32 230 41 50 9 114 21 143 26 28 5 78 14 110
20 31 5 93 16 137 24 44 8 106 19 138 25 31 5 81 14 110 19 51 9 143 26 317
57 47 9 109 20 138 25 28 5 78 14 110 19 31 6 93 17 137 25 44 8 105 18 135
24 30 6 111 19 180 31 137 22 221 37 290 51 25 5 99 18 165 29 113 20 339 60
450 80 70 13 314 57 480 86 77 14 165 30 195 35 30 6 91 16 135 24 44 8 105
19 135 24 77 14 335 60 395 71 44 8 90 16 280 50 28 5 113 20 190 34 77 14
181 32 230 41 50 9 114 21 143 26 28 5 76 13 105 19 28 5 115 20 192 34 77 14
181 32 230 41 50 9 114 21 143 26 28 5 78 14 110 20 295 54 370 62 484 56 240
-15 460 -131 615 -326 106 -132 145 -240 198 -545 26 -152 54 -311 70 -401 9
-49 21 -114 26 -142 5 -29 14 -79 20 -110 5 -32 16 -94 24 -138 8 -44 19 -106
25 -137 5 -32 14 -82 19 -110 5 -29 17 -93 26 -143 9 -49 27 -151 40 -225 13
-74 31 -173 39 -220 8 -47 25 -139 36 -205 26 -144 67 -379 81 -455 6 -30 16
-91 24 -135 8 -44 19 -106 25 -137 5 -32 14 -82 19 -110 5 -29 17 -93 26 -143
9 -49 27 -151 40 -225 13 -74 31 -173 39 -220 8 -47 24 -139 36 -205 12 -66
26 -145 31 -175 6 -30 16 -91 24 -135 8 -44 19 -105 24 -135 6 -30 15 -82 21
-115 22 -130 32 -182 40 -225 5 -25 12 -62 15 -84 l6 -39 142 7 c119 5 617 24
696 25 20 1 23 5 18 29 -6 32 -56 308 -67 372 -5 25 -15 86 -24 135 -8 50 -20
115 -26 145 -5 30 -15 84 -20 120 -6 36 -12 72 -15 80 -3 8 -9 44 -15 80 -5
36 -15 90 -20 120 -6 30 -18 96 -26 145 -17 96 -23 129 -48 270 -9 50 -21 117
-27 150 -20 116 -28 161 -45 250 -25 137 -31 172 -48 270 -8 50 -20 115 -26
145 -5 30 -14 80 -19 110 -5 30 -17 96 -26 145 -24 135 -58 325 -74 420 -5 28
-16 91 -25 140 -9 50 -21 117 -27 150 -20 116 -28 161 -45 250 -25 137 -31
172 -48 270 -8 50 -20 115 -26 145 -5 30 -14 80 -19 110 -5 30 -17 96 -26 145
-36 200 -63 352 -70 400 -6 38 -9 54 -35 155 -60 238 -138 410 -273 600 -135
190 -288 332 -501 464 -199 125 -438 207 -703 240 -112 15 -264 20 -288 10z"/>
<path d="M15492 25316 c-43 -15 -71 -52 -72 -93 0 -33 26 -191 79 -478 12 -60
21 -124 21 -142 0 -28 -4 -33 -32 -38 -109 -18 -335 -57 -403 -70 -44 -8 -118
-21 -165 -29 -47 -8 -121 -22 -165 -30 -44 -8 -134 -25 -200 -36 -66 -12 -183
-33 -260 -46 -77 -14 -203 -37 -280 -50 -77 -14 -162 -29 -190 -34 -27 -5
-113 -20 -190 -34 -77 -14 -180 -32 -230 -41 -49 -9 -114 -21 -142 -26 -29 -5
-79 -14 -110 -20 -32 -5 -94 -16 -138 -24 -105 -19 -170 -30 -280 -50 -49 -9
-112 -20 -140 -25 -27 -5 -90 -16 -140 -25 -49 -9 -114 -21 -142 -26 -29 -5
-79 -14 -110 -19 -125 -23 -230 -41 -263 -46 -32 -5 -37 -3 -54 30 -25 47 -98
121 -150 151 -134 78 -312 76 -440 -6 -80 -50 -153 -141 -182 -225 -33 -95
-19 -244 32 -343 30 -59 128 -148 201 -182 60 -28 76 -31 162 -31 106 0 165
17 250 71 88 57 167 184 183 295 3 22 27 30 133 46 71 11 96 15 260 45 177 32
201 36 280 50 105 19 170 30 280 50 50 9 113 20 140 25 60 11 320 57 390 70
28 5 118 21 200 35 359 63 433 77 480 85 28 5 113 20 190 34 77 14 181 32 230
41 50 9 114 21 143 26 28 5 78 14 110 19 31 6 93 17 137 25 44 8 106 19 138
24 31 6 81 15 110 20 28 5 90 16 137 25 47 8 123 22 170 30 47 9 88 16 91 16
4 0 9 -15 12 -32 3 -18 11 -60 17 -93 6 -33 17 -96 25 -140 8 -44 18 -105 24
-135 32 -178 65 -363 87 -490 14 -80 29 -167 34 -195 13 -70 59 -330 70 -390
5 -27 16 -90 25 -140 20 -110 31 -175 50 -280 8 -44 18 -105 24 -135 5 -30 21
-118 35 -195 13 -77 31 -178 40 -225 8 -47 24 -139 36 -205 30 -170 66 -375
85 -480 21 -118 33 -182 45 -251 13 -76 19 -94 33 -94 24 0 181 21 187 25 7 5
3 35 -25 190 -19 107 -31 172 -50 280 -8 44 -18 105 -24 135 -5 30 -19 109
-31 175 -12 66 -28 158 -36 205 -8 47 -26 146 -39 220 -13 74 -31 176 -40 225
-9 50 -20 113 -25 140 -5 28 -16 91 -25 140 -9 50 -21 114 -26 143 -5 28 -14
78 -19 110 -6 31 -17 93 -25 137 -8 44 -18 105 -24 135 -5 30 -19 109 -31 175
-21 121 -31 176 -76 430 -14 77 -29 163 -34 190 -5 28 -16 91 -25 140 -9 50
-20 113 -25 140 -5 28 -14 78 -21 113 -6 35 -9 65 -6 68 2 3 69 16 148 30 79
14 169 30 199 35 30 6 93 16 139 24 154 26 191 51 191 127 0 91 -57 118 -195
93 -49 -8 -153 -27 -230 -41 -77 -13 -164 -29 -193 -34 -30 -5 -62 -12 -73
-15 -23 -8 -33 13 -49 105 -6 36 -15 85 -20 110 -5 25 -21 115 -35 200 -31
185 -42 229 -63 254 -15 16 -66 47 -74 45 -2 0 -18 -6 -36 -13z"/>
<path d="M9035 23763 c-189 -69 -289 -208 -364 -508 -35 -139 -90 -433 -106
-565 -4 -30 -13 -91 -21 -135 -7 -44 -23 -145 -34 -225 -11 -80 -29 -201 -40
-270 -11 -69 -26 -170 -35 -225 -27 -177 -47 -273 -77 -372 -20 -68 -55 -34
-206 202 -59 94 -146 233 -192 310 -151 255 -202 339 -235 390 -18 28 -81 124
-139 214 -230 352 -356 484 -518 541 -138 48 -326 2 -422 -104 -83 -92 -121
-200 -143 -401 -14 -130 -14 -186 -4 -425 12 -260 19 -359 41 -510 5 -36 20
-153 34 -260 14 -107 37 -271 52 -365 26 -175 35 -235 53 -365 6 -41 17 -120
26 -175 9 -55 20 -127 25 -160 11 -76 37 -250 50 -335 5 -36 17 -110 25 -165
8 -55 19 -129 25 -165 23 -158 133 -809 157 -935 22 -119 72 -198 168 -270 67
-50 218 -63 299 -25 73 35 156 118 193 192 l32 63 -24 140 c-23 143 -34 212
-80 505 -14 91 -30 190 -35 220 -6 30 -19 118 -30 195 -31 218 -59 404 -70
470 -5 33 -21 134 -35 225 -14 91 -30 192 -35 225 -5 33 -17 107 -25 165 -9
58 -20 132 -25 165 -66 443 -100 731 -90 761 5 14 13 9 42 -27 19 -24 48 -66
64 -94 15 -27 64 -105 109 -172 44 -67 123 -189 175 -270 212 -331 367 -502
542 -597 202 -110 429 -81 588 77 82 81 112 127 185 292 13 27 53 147 74 220
5 17 16 64 26 105 9 41 20 93 25 115 5 22 16 78 25 125 8 47 19 108 25 135 5
28 21 122 35 210 23 145 69 414 81 473 3 13 10 22 17 19 13 -4 31 -57 72 -217
15 -58 31 -118 36 -135 5 -16 25 -97 45 -180 19 -82 41 -177 49 -210 8 -33 26
-112 40 -175 31 -133 54 -234 110 -472 8 -35 25 -119 39 -188 14 -69 33 -156
41 -195 9 -38 19 -90 24 -115 14 -74 50 -252 61 -295 8 -33 56 -286 101 -530
16 -86 57 -263 71 -310 16 -54 35 -83 81 -128 134 -128 335 -124 471 10 51 50
67 76 92 149 13 40 14 59 4 133 -17 122 -42 271 -70 416 -23 118 -40 207 -59
310 -38 206 -147 742 -161 795 -11 39 -50 213 -70 305 -18 85 -152 651 -169
715 -6 19 -22 82 -37 140 -214 840 -381 1260 -572 1442 -64 61 -109 88 -191
112 -75 22 -134 19 -216 -11z"/>
<path d="M18670 20329 c-91 -4 -271 -13 -400 -19 -129 -6 -293 -15 -365 -20
-71 -5 -209 -13 -305 -20 -96 -6 -245 -17 -330 -26 -85 -8 -204 -19 -265 -24
-195 -16 -328 -30 -565 -60 -41 -5 -131 -16 -200 -25 -69 -9 -150 -20 -180
-25 -30 -5 -104 -16 -165 -25 -249 -36 -459 -70 -575 -94 -25 -5 -85 -17 -135
-26 -153 -28 -336 -65 -425 -86 -47 -11 -112 -26 -145 -34 -225 -53 -301 -72
-470 -121 -399 -116 -540 -164 -875 -301 -279 -114 -581 -287 -743 -426 -169
-146 -258 -257 -311 -390 -25 -63 -27 -77 -23 -180 5 -154 32 -234 120 -354
206 -280 604 -517 1297 -773 98 -36 364 -120 495 -156 50 -14 115 -32 145 -40
99 -28 404 -105 450 -114 25 -5 122 -25 215 -45 153 -32 276 -57 420 -84 28
-6 70 -13 95 -16 25 -3 68 -10 95 -15 163 -29 440 -72 610 -95 299 -39 407
-52 575 -70 80 -8 183 -20 230 -25 622 -69 1730 -121 2575 -121 371 0 603 5
1275 26 406 13 1233 74 1640 120 170 20 290 34 380 46 41 5 134 16 205 24 72
9 157 20 190 26 33 5 183 30 333 54 150 25 307 52 350 60 42 8 115 22 162 31
47 8 103 19 125 24 22 5 96 21 165 36 116 24 286 66 470 116 290 78 429 122
735 231 337 121 588 240 824 388 157 99 253 174 358 281 157 158 216 280 215
443 0 122 -27 198 -118 343 -150 235 -636 539 -1179 737 -210 77 -395 138
-570 190 -49 15 -117 35 -150 45 -101 30 -296 79 -520 130 -39 9 -202 44 -280
61 -97 20 -322 62 -455 85 -80 14 -167 29 -195 34 -109 20 -398 62 -585 85
-69 8 -156 20 -195 25 -70 10 -261 32 -430 50 -215 22 -310 31 -460 41 -88 6
-218 14 -290 19 -303 21 -703 40 -1025 51 -442 14 -1605 20 -1820 8z"/>
<path d="M12155 17293 c-10 -203 2 -1382 14 -1491 12 -101 40 -162 125 -268
132 -164 368 -358 589 -485 341 -195 941 -425 1577 -604 101 -28 129 -36 220
-60 52 -14 111 -30 130 -35 19 -6 112 -28 205 -50 94 -22 188 -45 210 -50 207
-49 395 -88 575 -120 63 -11 151 -27 195 -35 100 -18 228 -39 370 -60 116 -17
194 -29 298 -45 34 -5 121 -17 192 -25 72 -8 168 -19 215 -25 149 -17 272 -29
400 -41 69 -6 170 -15 225 -20 224 -20 720 -48 1040 -60 374 -13 1360 -7 1730
9 705 33 1098 64 1705 137 427 51 681 88 1055 155 88 15 407 81 490 100 73 17
140 32 280 62 57 13 412 102 495 125 30 8 73 19 95 24 90 22 432 125 600 181
171 57 286 101 403 154 29 13 54 24 57 24 8 0 169 76 310 147 156 79 237 122
425 226 203 112 397 296 528 503 l52 81 0 841 c0 475 -4 842 -9 842 -9 0 -38
-27 -196 -179 -167 -160 -342 -292 -529 -399 -147 -83 -584 -281 -718 -326
-17 -5 -18 -29 -18 -318 0 -461 -21 -727 -65 -814 -53 -108 -202 -137 -331
-65 -91 51 -114 147 -114 481 -1 274 -14 485 -30 506 -7 8 -20 12 -28 9 -8 -3
-76 -21 -151 -40 -75 -20 -146 -40 -158 -45 l-23 -10 0 -257 c0 -142 -5 -420
-11 -617 -10 -355 -20 -454 -50 -494 -65 -86 -148 -134 -245 -140 -51 -3 -72
1 -138 28 -136 57 -184 128 -206 303 -6 45 -15 276 -20 512 -5 237 -12 449
-16 473 -8 48 -8 48 -114 31 -36 -5 -92 -14 -125 -19 -60 -9 -263 -42 -365
-60 -72 -13 -176 -28 -275 -40 -44 -5 -170 -21 -280 -35 -208 -27 -262 -33
-535 -59 -214 -21 -373 -34 -540 -46 -802 -56 -698 -51 -1540 -71 -1138 -26
-2414 26 -3450 140 -47 6 -130 15 -185 21 -55 6 -131 15 -170 20 -38 5 -106
14 -150 20 -209 26 -315 41 -365 50 -30 5 -100 17 -155 25 -55 8 -147 24 -205
35 -58 11 -202 38 -320 60 -118 22 -235 45 -260 51 -25 6 -63 15 -85 20 -36 8
-238 56 -405 95 -331 79 -893 262 -1135 369 -27 12 -83 37 -122 54 -466 204
-751 418 -902 679 -23 39 -46 72 -50 72 -5 0 -12 -71 -16 -157z"/>
<path d="M7345 17400 c-80 -14 -111 -26 -172 -69 -101 -71 -160 -161 -184
-279 -26 -125 22 -273 118 -369 58 -57 163 -114 226 -122 46 -7 42 3 73 -171
31 -174 65 -367 74 -415 8 -47 22 -121 85 -480 14 -82 31 -175 36 -205 6 -30
16 -91 24 -135 8 -44 19 -106 25 -137 5 -32 14 -82 19 -110 5 -29 17 -93 26
-143 20 -110 31 -175 50 -280 8 -44 19 -107 25 -140 6 -33 17 -96 25 -140 8
-44 18 -105 24 -135 11 -64 31 -176 61 -345 30 -170 66 -375 85 -480 9 -49 21
-114 26 -142 5 -29 14 -79 19 -110 6 -32 17 -94 25 -138 8 -44 18 -105 24
-135 5 -30 22 -122 36 -205 14 -82 30 -175 36 -205 6 -30 16 -91 24 -135 19
-105 30 -170 50 -280 9 -49 20 -112 25 -140 5 -27 16 -90 25 -140 9 -49 21
-114 26 -142 5 -29 14 -79 19 -110 6 -32 17 -94 25 -138 8 -44 18 -105 24
-135 12 -64 59 -332 72 -405 10 -61 35 -200 49 -277 5 -32 14 -82 19 -110 5
-29 16 -91 25 -138 31 -174 48 -266 57 -317 5 -29 14 -79 19 -110 6 -32 17
-94 25 -138 8 -44 18 -105 24 -135 11 -64 31 -176 61 -345 30 -170 66 -375 85
-480 9 -49 20 -112 25 -140 5 -27 16 -90 25 -140 9 -49 21 -114 26 -142 5 -29
14 -79 19 -110 12 -64 33 -187 49 -276 6 -33 13 -67 16 -77 7 -21 -7 -27 -89
-40 -34 -5 -113 -18 -176 -29 -379 -68 -371 -66 -397 -104 -40 -59 -25 -124
36 -153 45 -21 47 -21 554 71 67 13 101 15 108 8 6 -6 14 -37 19 -69 5 -32 21
-124 35 -204 14 -80 31 -172 36 -205 12 -72 29 -101 73 -122 44 -20 80 -11
119 30 36 39 36 45 -22 357 -32 173 -43 252 -35 260 5 4 63 17 129 28 66 12
161 28 210 37 50 9 114 21 143 26 28 5 78 14 110 20 31 5 93 16 137 24 105 19
170 30 280 50 50 9 113 20 140 25 92 16 288 51 565 99 63 12 141 26 173 32
l58 12 -3 106 c-2 87 -6 106 -18 105 -14 -2 -183 -31 -395 -69 -49 -9 -112
-20 -140 -25 -27 -5 -115 -21 -195 -35 -80 -14 -170 -30 -200 -35 -48 -8 -225
-39 -400 -71 -30 -6 -91 -16 -135 -24 -118 -21 -180 -32 -275 -49 -165 -31
-222 -38 -230 -29 -4 4 -17 62 -28 128 -12 66 -28 161 -37 210 -9 50 -21 114
-26 143 -5 28 -14 78 -19 110 -6 31 -17 93 -25 137 -8 44 -19 107 -25 140 -6
33 -17 96 -25 140 -8 44 -18 105 -24 135 -5 30 -19 109 -31 175 -12 66 -28
158 -36 205 -8 47 -26 146 -39 220 -13 74 -31 176 -40 225 -9 50 -21 114 -26
143 -5 28 -14 78 -19 110 -6 31 -17 93 -25 137 -8 44 -18 105 -24 135 -14 79
-56 315 -81 455 -12 66 -28 158 -36 205 -8 47 -26 146 -39 220 -13 74 -31 176
-40 225 -9 50 -21 114 -26 143 -5 28 -14 78 -19 110 -6 31 -17 93 -25 137 -8
44 -18 105 -24 135 -14 79 -56 315 -81 455 -12 66 -28 158 -36 205 -40 223
-66 370 -75 420 -6 30 -16 91 -24 135 -8 44 -19 107 -25 140 -6 33 -17 96 -25
140 -8 44 -18 105 -24 135 -32 175 -63 352 -71 400 -8 50 -30 171 -75 425 -9
50 -20 113 -25 140 -5 28 -16 91 -25 140 -9 50 -21 114 -26 143 -5 28 -14 78
-19 110 -6 31 -17 93 -25 137 -8 44 -18 105 -24 135 -5 30 -19 109 -31 175
-12 66 -28 158 -36 205 -8 47 -26 146 -39 220 -13 74 -31 176 -40 225 -9 50
-21 114 -26 143 -5 28 -14 78 -20 110 -11 64 -33 188 -49 277 -13 80 -13 83
11 90 42 14 145 123 176 187 47 96 59 180 39 268 -30 131 -81 209 -178 272
-96 62 -199 85 -303 68z"/>
<path d="M27201 15084 c-17 -52 -44 -121 -61 -153 -50 -92 -147 -207 -250
-293 -92 -77 -323 -236 -425 -293 -138 -77 -284 -149 -415 -205 -80 -34 -163
-71 -185 -80 -98 -44 -425 -162 -600 -216 -267 -84 -356 -107 -920 -244 -42
-10 -382 -78 -650 -129 -198 -38 -322 -60 -400 -71 -33 -5 -107 -16 -165 -25
-58 -9 -132 -20 -165 -25 -190 -27 -298 -42 -360 -50 -38 -4 -122 -15 -185
-24 -64 -9 -158 -20 -210 -26 -52 -6 -131 -15 -175 -20 -494 -57 -1093 -103
-1705 -132 -365 -17 -1565 -17 -1835 0 -308 19 -651 48 -870 72 -49 5 -155 17
-235 25 -80 9 -170 20 -200 25 -30 5 -95 14 -145 20 -88 12 -220 31 -340 50
-121 19 -252 39 -330 51 -85 12 -321 54 -395 70 -25 5 -103 21 -175 35 -117
22 -173 34 -300 64 -22 5 -69 16 -105 24 -187 43 -369 87 -400 96 -19 5 -118
33 -220 60 -102 28 -196 55 -210 60 -14 4 -52 16 -85 25 -130 38 -428 140
-585 200 -106 41 -290 105 -302 105 -29 0 19 -109 98 -221 77 -109 181 -217
287 -298 112 -85 324 -218 421 -265 157 -76 274 -129 321 -147 28 -11 59 -23
70 -28 11 -5 52 -21 90 -36 39 -15 79 -31 90 -36 11 -4 94 -33 185 -63 270
-90 637 -190 925 -252 39 -8 88 -19 110 -24 22 -5 54 -11 70 -14 17 -3 62 -13
100 -21 194 -43 455 -91 705 -129 58 -9 130 -21 160 -26 57 -10 213 -33 335
-50 39 -5 133 -16 210 -25 150 -16 257 -28 400 -45 138 -16 472 -46 665 -60
371 -27 601 -40 1045 -62 345 -17 1952 -17 2260 0 127 7 316 17 420 23 314 17
709 48 1065 84 249 26 318 33 450 50 69 8 159 20 200 25 41 5 156 21 255 35
99 15 207 30 240 35 85 12 173 27 300 51 61 11 171 32 245 46 201 37 276 52
365 73 44 10 116 26 160 35 44 9 94 21 110 26 17 5 68 18 115 30 73 18 292 74
370 94 146 39 521 164 640 213 14 6 52 20 85 33 94 35 230 95 385 172 450 221
725 482 796 753 49 188 -48 412 -268 619 -79 74 -261 211 -353 265 -86 50
-465 240 -479 240 -10 0 -25 -31 -45 -96z"/>
<path d="M13563 12393 c4 -902 3 -888 57 -993 91 -178 316 -377 630 -558 81
-47 294 -154 380 -192 41 -18 102 -45 135 -60 169 -77 529 -208 795 -290 74
-23 146 -45 160 -49 14 -5 45 -14 70 -21 43 -12 88 -24 175 -49 172 -48 335
-88 593 -146 37 -9 85 -20 107 -25 22 -6 110 -24 195 -41 85 -17 175 -35 200
-40 25 -5 83 -17 130 -25 47 -9 105 -20 130 -25 192 -36 405 -70 690 -110 41
-5 102 -14 135 -19 65 -10 243 -34 370 -50 44 -6 152 -17 240 -25 88 -8 205
-19 260 -25 396 -39 961 -60 1643 -60 688 0 984 8 1797 51 373 19 920 68 1325
120 47 5 117 14 155 19 39 5 102 14 140 20 39 6 97 15 130 20 285 44 468 77
680 120 28 6 97 20 155 31 58 12 121 25 140 29 19 4 69 15 110 24 68 15 257
60 370 87 48 12 201 52 260 69 148 41 486 148 675 214 130 45 463 174 520 200
17 8 75 36 130 61 323 151 525 267 717 412 107 81 251 219 296 285 67 98 79
134 91 283 12 150 16 1575 5 1575 -4 0 -82 -73 -173 -163 -177 -173 -235 -221
-373 -310 -102 -66 -477 -263 -643 -337 -27 -13 -77 -35 -110 -50 -33 -15 -85
-35 -115 -45 -30 -11 -61 -23 -67 -28 -10 -7 -13 -118 -13 -491 -1 -365 -4
-496 -14 -544 -18 -83 -45 -116 -131 -157 -98 -48 -197 -27 -268 55 -56 66
-60 94 -67 525 -4 215 -10 400 -15 413 -9 27 -9 27 -109 -2 -44 -12 -103 -28
-131 -35 -27 -7 -66 -16 -86 -21 l-36 -10 -6 -512 c-8 -731 -20 -823 -122
-917 -55 -51 -86 -66 -161 -81 -142 -28 -312 62 -353 188 -12 36 -20 233 -37
870 -5 170 -11 278 -18 287 -9 11 -21 12 -61 4 -27 -5 -79 -14 -115 -19 -36
-6 -90 -14 -120 -20 -30 -5 -104 -17 -165 -25 -60 -8 -139 -19 -175 -25 -59
-9 -178 -26 -360 -50 -261 -35 -584 -70 -880 -96 -96 -8 -222 -19 -280 -24
-58 -6 -186 -14 -285 -20 -99 -5 -205 -12 -235 -15 -52 -6 -202 -13 -750 -35
-967 -38 -2171 -15 -3100 61 -286 23 -941 90 -1075 110 -82 12 -159 23 -270
38 -44 6 -107 15 -140 21 -33 5 -94 14 -135 20 -76 11 -269 43 -370 61 -147
27 -229 42 -265 49 -84 16 -252 51 -290 60 -22 5 -71 16 -110 25 -160 36 -361
83 -405 95 -19 6 -73 20 -120 31 -47 11 -98 24 -115 29 -635 178 -1142 400
-1514 663 -177 125 -297 248 -361 372 -19 37 -39 69 -43 72 -5 3 -6 -372 -4
-834z"/>
<path d="M13000 10966 c-307 -144 -584 -331 -781 -527 -137 -138 -196 -280
-187 -449 9 -158 82 -287 263 -465 163 -161 343 -280 635 -422 85 -41 164 -79
175 -83 11 -4 31 -12 45 -18 66 -30 336 -131 430 -162 51 -17 196 -62 225 -70
17 -5 55 -16 85 -25 258 -77 722 -191 935 -230 50 -9 122 -23 160 -31 79 -16
255 -48 360 -65 39 -6 86 -15 105 -19 19 -5 60 -11 90 -15 30 -3 78 -10 105
-15 50 -8 106 -16 305 -44 205 -29 319 -42 730 -87 203 -21 446 -42 820 -68
80 -6 163 -13 185 -16 171 -22 743 -35 1545 -35 1191 0 1934 20 2445 69 61 6
160 15 220 21 61 5 151 15 200 20 50 6 128 15 175 21 47 5 144 16 215 24 72 9
157 20 190 25 33 5 114 16 180 25 66 9 190 27 275 41 85 13 187 29 225 35 98
14 160 25 315 54 74 14 173 32 220 41 102 18 202 39 290 59 36 8 85 19 110 25
81 17 603 150 675 172 886 268 1448 571 1695 913 69 96 134 219 127 239 -5 12
-13 13 -44 4 -49 -13 -240 -77 -368 -123 -196 -71 -490 -168 -590 -195 -16 -4
-78 -22 -136 -39 -164 -47 -604 -160 -701 -180 -24 -5 -119 -25 -213 -45 -150
-32 -368 -76 -520 -105 -27 -6 -93 -17 -145 -26 -52 -9 -120 -20 -150 -26
-163 -29 -813 -120 -1035 -144 -254 -27 -328 -35 -515 -49 -173 -14 -287 -21
-735 -46 -230 -13 -993 -13 -1330 0 -244 9 -353 15 -770 41 -371 23 -846 62
-1075 89 -47 5 -125 14 -175 19 -49 6 -148 18 -220 26 -71 9 -166 20 -210 25
-100 11 -222 27 -300 40 -33 5 -114 17 -180 25 -119 17 -322 50 -485 80 -47 9
-107 20 -135 25 -321 58 -720 142 -855 180 -19 6 -71 19 -115 30 -189 45 -251
61 -275 69 -14 5 -43 14 -65 20 -123 33 -436 127 -505 151 -52 17 -176 62
-195 70 -11 4 -51 20 -90 35 -38 15 -79 31 -90 35 -11 5 -71 30 -134 55 -161
65 -452 210 -610 304 -170 102 -293 195 -403 308 -127 128 -182 211 -218 328
-31 103 -47 135 -67 135 -10 0 -70 -24 -133 -54z"/>
<path d="M26737 8987 c-66 -102 -210 -255 -312 -332 -140 -105 -379 -245 -555
-324 -41 -18 -102 -46 -135 -61 -33 -14 -123 -50 -200 -79 -77 -29 -149 -56
-160 -61 -37 -16 -268 -89 -395 -125 -184 -53 -577 -156 -665 -175 -22 -4 -96
-20 -165 -35 -116 -24 -318 -64 -435 -85 -27 -5 -88 -16 -135 -25 -127 -23
-233 -41 -355 -59 -134 -20 -222 -34 -295 -46 -30 -5 -80 -11 -110 -15 -30 -3
-84 -10 -120 -15 -36 -5 -108 -14 -160 -20 -52 -6 -126 -16 -165 -21 -38 -5
-113 -14 -165 -19 -52 -6 -135 -15 -185 -20 -369 -40 -956 -81 -1570 -109
-297 -14 -1608 -14 -1880 -1 -115 6 -401 20 -635 31 -234 11 -479 24 -545 29
-405 31 -990 86 -1175 110 -41 5 -129 17 -195 25 -212 27 -267 36 -515 76
-292 48 -438 65 -451 52 -22 -22 -28 -103 -29 -393 0 -432 -21 -711 -53 -732
-7 -4 -139 -8 -295 -8 l-282 0 -10 23 c-24 59 -30 206 -30 721 0 423 -3 546
-12 554 -30 23 -338 106 -350 94 -17 -17 -27 -205 -28 -496 0 -172 -5 -304
-12 -345 -11 -60 -17 -71 -68 -123 -58 -57 -101 -78 -168 -78 -64 0 -159 56
-187 110 -22 43 -34 211 -45 645 -12 478 -11 469 -53 486 -18 7 -54 23 -82 35
-27 12 -90 39 -140 59 -261 108 -445 205 -667 351 -86 57 -181 125 -210 150
-29 26 -69 60 -88 77 -19 16 -86 80 -148 141 l-113 111 4 -775 c6 -875 7 -895
77 -1043 60 -126 395 -415 635 -547 33 -18 76 -42 95 -53 95 -53 512 -257 525
-257 4 0 25 -9 48 -19 51 -23 244 -97 307 -117 25 -8 54 -19 65 -24 18 -8 253
-81 300 -93 11 -3 61 -18 110 -32 50 -15 106 -31 125 -35 33 -8 145 -37 420
-108 115 -29 259 -63 445 -103 55 -12 118 -25 140 -30 22 -5 78 -16 125 -24
47 -9 105 -20 130 -24 55 -11 324 -59 400 -71 30 -5 98 -16 150 -25 52 -9 120
-20 150 -25 495 -81 1167 -153 1890 -200 570 -38 1503 -49 2100 -26 228 9 462
20 520 26 58 5 179 14 270 20 179 13 560 46 680 60 41 4 120 13 175 19 55 6
129 16 165 21 76 10 178 24 345 45 66 9 145 20 175 25 30 6 154 26 275 45 121
20 256 43 300 51 81 14 94 17 285 55 58 12 123 25 145 29 22 4 74 15 115 25
41 9 93 21 115 25 43 9 553 138 645 164 30 8 91 24 134 36 119 32 480 149 616
200 314 117 427 164 586 240 374 180 591 321 792 514 139 134 179 208 208 384
12 79 16 238 21 857 3 418 4 769 1 780 -3 15 -17 -1 -61 -68z"/>
</g>
</svg>
